<svg width="24" height="24" viewBox="0 0 24 24" fill="none" xmlns="http://www.w3.org/2000/svg">
<mask id="mask0_1600_12095" style="mask-type:alpha" maskUnits="userSpaceOnUse" x="0" y="0" width="24" height="24">
<rect width="24" height="24" fill="#D9D9D9"/>
</mask>
<g mask="url(#mask0_1600_12095)">
<path d="M11 15C10.7167 15 10.4792 14.9042 10.2875 14.7125C10.0958 14.5208 10 14.2833 10 14V10C10 9.71667 10.0958 9.47917 10.2875 9.2875C10.4792 9.09583 10.7167 9 11 9H14C14.2833 9 14.5208 9.09583 14.7125 9.2875C14.9042 9.47917 15 9.71667 15 10V14C15 14.2833 14.9042 14.5208 14.7125 14.7125C14.5208 14.9042 14.2833 15 14 15H11ZM11.5 13.5H13.5V10.5H11.5V13.5ZM4 15C3.71667 15 3.47917 14.9042 3.2875 14.7125C3.09583 14.5208 3 14.2833 3 14V10C3 9.71667 3.09583 9.47917 3.2875 9.2875C3.47917 9.09583 3.71667 9 4 9H7C7.28333 9 7.52083 9.09583 7.7125 9.2875C7.90417 9.47917 8 9.71667 8 10V11H6.5V10.5H4.5V13.5H6.5V13H8V14C8 14.2833 7.90417 14.5208 7.7125 14.7125C7.52083 14.9042 7.28333 15 7 15H4ZM17 18V15.5C17 15.2167 17.0958 14.9792 17.2875 14.7875C17.4792 14.5958 17.7167 14.5 18 14.5H20V13.5H17V12H20.5C20.7833 12 21.0208 12.0958 21.2125 12.2875C21.4042 12.4792 21.5 12.7167 21.5 13V14.5C21.5 14.7833 21.4042 15.0208 21.2125 15.2125C21.0208 15.4042 20.7833 15.5 20.5 15.5H18.5V16.5H21.5V18H17Z" fill="#1C1B1F"/>
</g>
</svg>
